<?xml version="1.0" encoding="utf-8"?>
<!-- Generator: Adobe Illustrator 22.1.0, SVG Export Plug-In . SVG Version: 6.00 Build 0)  -->
<svg version="1.1" id="Layer_1" xmlns="http://www.w3.org/2000/svg" xmlns:xlink="http://www.w3.org/1999/xlink" x="0px" y="0px"
	 viewBox="0 0 200 200" style="enable-background:new 0 0 200 200;" xml:space="preserve">
<style type="text/css">
	.st0{fill:none;}
	.st1{fill:#81A050;stroke:#304313;stroke-width:10;stroke-miterlimit:10;}
	.st2{fill:#94BC25;stroke:#94BC25;stroke-miterlimit:10;}
	.st3{fill:#A8A426;stroke:#A8A426;stroke-miterlimit:10;}
	.st4{fill:#D6E938;}
	.st5{fill:#7F8B2A;stroke:#7F8B2A;stroke-miterlimit:10;}
	.st6{fill:#55700B;stroke:#55700B;stroke-miterlimit:10;}
	.st7{fill:#B9D695;stroke:#B9D695;stroke-miterlimit:10;}
	.st8{fill:#9DBE45;stroke:#9DBE45;stroke-miterlimit:10;}
	.st9{fill:#95B73B;stroke:#95B73B;stroke-miterlimit:10;}
	.st10{fill:#749729;stroke:#749729;stroke-miterlimit:10;}
	.st11{fill:#BBD16B;}
	.st12{fill:#A36F5F;stroke:#A36F5F;stroke-miterlimit:10;}
	.st13{fill:#FFFFFF;}
	.st14{font-family:'RobotoMono-Regular';}
	.st15{font-size:27.9726px;}
	.st16{fill:#AD8E86;}
</style>
<g id="Layer_1_1_">
</g>
<g id="Layer_2_1_">
</g>
<g id="Layer_23">
</g>
<g id="Layer_15">
</g>
<g id="Layer_14">
</g>
<g id="Layer_13">
</g>
<g id="Layer_12">
</g>
<g id="Layer_11">
</g>
<g id="Layer_10">
</g>
<g id="Layer_9">
</g>
<g id="Layer_8">
</g>
<g id="Layer_7">
</g>
<g id="Layer_6">
</g>
<g id="Layer_5">
</g>
<g id="Layer_4">
</g>
<path class="st0" d="M188.6,104"/>
<g>
	<path class="st1" d="M158.6,98.4c-4.3-6.9-10.9-22.1-10.9-22.1c-5.6-10.2-7.4-18.6-7.4-18.6c-3.8-6.6-4.3-13.5-4.3-15.5
		c0-0.5-0.3-0.8-0.3-1.3c-2-5.1-3.3-10.7-3.3-10.7c-4.1-15-20.9-22.6-20.9-22.6C95,3.3,80,10.6,80,10.6
		c-12.5,8.9-16.8,23.9-16.8,23.9c-0.8,9.9-4.3,19.1-4.3,19.1c-2.3,17.5-15.3,36.1-15.3,36.1C35,101.4,32.5,122,32.5,122
		c-3.1,11.7,8.1,35.9,8.1,35.9c6.9,15.3,24.7,24.7,33.6,28.7c1,0.5,2,0.8,2.8,1.3c1.5,0.8,2.5,1,2.5,1c15.3,5.1,40.7,0,40.7,0
		c14.7-4.1,30-21.6,30-21.6C167,148,165,120.7,165,120.7C166,110.6,158.6,98.4,158.6,98.4z"/>
	<polygon class="st2" points="62.5,180.2 68.3,180.2 70.1,173.6 71.9,181.3 77,181.3 79.5,173.6 81.6,181.3 88.2,181.3 90.5,171.9
		93.5,182.5 98.3,182.5 100.4,174.9 102.7,180.5 107.2,180.5 109.8,171.9 112.6,182.5 117.7,182.5 119.4,175.2 122.5,182.5
		127.8,182.5 129.6,173.6 131.1,181.5 135.7,180 137.5,173.4 139.5,176.9 150,167 156.3,157.6 161.7,144.9 163.7,136.3 32.7,134.5
		35,142.9 39.3,154.8 42.9,162.2 48.5,169.3 56.1,176.2 58.4,177.7 59.7,172.9 	"/>
	<polygon class="st3" points="42.6,161.9 45.4,161.9 47.2,155.8 48.2,163.2 52.3,163.2 53.6,156.6 56.6,163.2 60.7,163.2 63,154.6
		65.3,164.2 68.3,164.2 69.6,157.6 72.9,163 77.7,163 79.3,154.6 81.3,164.2 86.6,164.2 89.9,155.8 91.7,164.2 98.6,164.2
		101.6,155.6 105.5,164.2 110.3,164.2 111.8,154.6 113.6,162.4 118.9,162.2 120.5,154.6 122.2,164.2 126.3,164.2 128.3,157.1
		131.7,164.2 135.7,164.2 137.2,155.6 140.6,164.2 146.1,164.2 147.7,154.6 148.9,163.2 151.5,162.7 153.5,154.6 154.5,160.9
		160.1,149.7 163.9,133.7 164.7,122.5 164.7,116.4 33.5,115.4 32,126.3 33.7,139.1 37.8,151 	"/>
	<path class="st4" d="M162.2,105.7L41.4,104c-1.3,2-3.1,3.6-5.6,4.6c-0.8,1.5-2,2.8-3.3,3.8l-2,9.7v12.7l3.1,9.7h5.1l1.3-8.4
		l1.8,8.9H46l2-7.1l3.8,7.9h3.6l1.5-8.4l2,6.6h4.8l2-6.6l0.8,8.4h5.1l2.3-7.9l0.8,5.8H78l1.8-6.6l0.8,8.9h4.3l1-8.6l2.3,8.6h4.1
		L94,137l1.5,8.9h3.8l1.8-7.4l1.8,7.4h3.3l2.5-9.2l2,9.2h5.8l0.8-7.1l4.6,7.1h3.6l1.5-10.2l2,7.9l5.6,0.5l2-7.6l1.8,9.2h5.1l1.3-7.6
		l2,5.8l4.3-0.3l1.8-8.1l2,8.6l4.1-0.8l0.8-7.9l1.5,7.4l2-2.3l1.8-12.7v-13.5L162.2,105.7z"/>
	<path class="st5" d="M159.6,100.1h-120l0,0c-0.5,1-1,1.8-1.8,2.5c-0.5,2-1.5,3.8-3.1,5.3l-4.1,18.1H36l2.5-7.9l0.8,6.6
		c2.8,1.8,4.8,0,4.8,0l1.3-6.6l1.3,7.9h3.1l1.8-7.9l2.3,7.9h3.1l2.3-6.1l1.8,6.1h3.8l2.5-7.9l2,7.9h4.3l1.5-6.1l1.5,6.1h3.8l2.5-9.2
		l1.8,9.2h3.3l1.3-6.9l3.3,7.9h3.8l1.5-9.2l2.3,7.9h3.6l2-7.9l2.5,8.9h3.6l1-6.9l3.1,6.9h4.6v-5.1l3.3,5.1h3.8l1.3-7.9l4.1,7.9h4.3
		l1.5-7.1l2.3,7.1h4.1l1-7.1l3.6,7.9h3.6l1.5-8.1l2.3,6.9h2.3l1.5-6.1l0.8,7.4h2.5v-16.3L159.6,100.1z"/>
	<polygon class="st6" points="35.8,106.8 40.6,106.8 42.9,101.7 43.7,108.5 47.2,108.5 49,101.7 50.3,106.8 53.6,106.8 56.1,101.7
		56.1,108.5 61,108.5 62,101.7 63.5,109.3 68.8,109.3 70.6,101.7 73.4,109.3 78.8,109.3 81.8,102.7 84.9,109.3 88.9,109.3
		90.5,102.7 92,110.3 96,110.3 97.3,102.9 99.1,109.6 103.7,109.3 104.7,102.4 108.8,110.3 113.8,110.3 114.9,102.9 117.4,109.3
		122.5,109 123.8,101.7 125.8,110.3 130.9,110.3 132.4,101.7 134.7,110.3 139.8,110.3 140.8,103.5 142.8,109 147.7,108.8
		148.7,102.7 150,110.3 154.5,110.3 156.3,103.2 158.4,111.6 162.4,111.6 162.4,105.2 164.5,111.6 158.6,96.1 151.2,81.1 50,78.5
		43.4,89.2 	"/>
	<polygon class="st7" points="40.6,94.6 44.4,94.6 47.7,87.9 47.7,94.6 51,94.6 53.8,87.9 55.1,94.6 58.9,94.6 58.9,87.9 63,94.6
		66.3,94.6 69.1,87.9 70.6,96.1 74.7,96.1 77,87.9 78.2,94 81.8,94 84.6,87.9 86.1,96.1 89.9,96.1 92.2,87.9 93.5,94 98.6,94
		100.1,87.9 102.2,96.1 105.7,96.1 107,87.9 109.5,96.1 113.3,96.1 113.3,89.2 117.4,96.1 123,96.1 124.5,87.9 126.3,96.1
		130.4,96.1 132.2,87.9 135,96.1 140.8,96.1 142.3,87.9 143.9,94 148.4,94 148.4,87.9 151.2,94.3 156.1,93.8 148.2,77 144.6,69.9
		141.6,61.2 57.4,59.7 53.6,70.6 49.5,79.5 44.4,87.9 	"/>
	<polygon class="st8" points="49,80.1 53.3,80.1 55.4,74.7 55.4,80.1 59.9,80.1 61.7,74.7 63.8,81.3 68.8,81.3 70.6,74.7 72.4,81.3
		75.7,81.3 79.3,73.2 80.8,82.1 87.4,82.1 89.7,73.2 91.5,82.1 96,82.1 98.3,73.2 100.1,83.4 105.2,83.4 106.7,75 109.3,83.4
		113.6,83.4 115.4,73.2 117.9,81.8 122.5,82.1 124.5,73.2 127.3,83.4 130.6,83.4 132.2,74.2 135.2,83.4 139,83.4 140.6,74.5
		142.1,83.4 145.6,83.4 145.6,74.5 147.7,83.4 151,83.4 144.6,69.6 139,54.6 124.3,48 60.7,47 55.9,65.3 	"/>
	<polygon class="st5" points="55.4,66.1 58.7,66.1 61.2,60.2 62.2,67.6 65.8,67.6 66.8,60.2 69.1,67.6 73.4,67.6 74.9,59.2 77,67.6
		84.6,67.6 86.1,59.2 87.7,65.6 93.8,65.6 95.5,59.2 96.8,67.6 101.6,67.6 103.7,59.2 104.9,67.6 109.3,67.6 110.8,60.5 113.1,67.6
		118.4,67.6 119.4,60.5 120.7,67.6 127.1,67.6 128.1,60.5 129.6,68.9 135,68.9 136.5,60.7 138.8,69.6 144.6,69.6 140.6,57.4
		136.2,44.2 134.7,38.1 62.7,38.1 	"/>
	<polygon class="st9" points="58.7,53.1 62.2,53.1 64.3,47 65.5,54.4 69.1,54.4 70.9,47 73.2,55.6 78.8,55.6 80.3,47 83.3,55.6
		88.2,55.6 89.4,49.3 91.5,54.4 95.5,54.4 97.3,47 99.1,55.6 103.7,55.6 105.2,48.8 107.5,57.4 110,57.4 111.6,48.5 115.4,57.4
		118.7,57.4 119.7,48.3 124,57.4 127.8,57.4 128.9,47 130.6,54.4 133.2,54.4 133.2,47 135.7,54.9 138.8,54.4 133.9,35.6 130.6,25.6
		94.5,21.1 68.3,22.8 	"/>
	<polygon class="st10" points="61.2,40.9 65,40.9 65.5,39.4 67.3,33.8 68.6,40.9 73.2,40.9 76.2,32 76.2,40.9 80.8,40.9 83.1,32
		85.4,42.7 90.7,42.7 92,32 93.8,40.1 100.1,40.4 100.1,32 103.4,40.4 108.5,40.4 109.5,32 112.3,40.1 117.9,39.9 119.2,30.5
		121.5,39.9 126.8,40.1 128.3,30.5 129.6,41.1 137.2,40.6 130.9,23.6 123.5,15 73.9,15 64.3,28.7 	"/>
	<path class="st11" d="M70.6,17c0.8-1.5,1.5-2.8,2.5-4.1C81,4.3,98.1,3.5,98.1,3.5c9.7,0.5,16.5,3.6,21.6,6.9
		c6.9,4.8,9.7,10.4,9.7,10.4H122l-2.3-6.6l-1.3,6.6h-5.3l1.3-8.6l-3.8,8.6h-4.8v-7.6l-2.8,7.6h-4.8l-1.8-8.6L95,20.8h-4.8l0.8-8.6
		l-4.1,8.6h-3.8l0.3-8.6L79,20.8h-3.8l0.8-6.4l-3.8,6.4h-4.1L70.6,17z"/>
	<path class="st12" d="M125.8,86.4c-7.4-13.7-27.5-16.5-27.5-16.5c-22.6,3.1-32.5,25.7-32.5,25.7c-9.4,11.7-7.9,31-7.9,31
		c2.3,19.6,20.9,31.3,20.9,31.3c11.7,10.4,38.4,1.8,38.4,1.8c16-7.9,21.1-27,21.1-27c6.1-10.9-2.3-31.5-2.3-31.5
		C125.8,86.4,125.8,86.4,125.8,86.4z"/>
	<text transform="matrix(1 0 0 1 57.5313 128.2267)" class="st13 st14 st15">Chido</text>
	<path class="st16" d="M84.4,78.8c-9.4,3.3-4.8,8.6-4.8,8.6c3.8,4.8,14.5-7.4,14.5-7.4C93.5,75,84.4,78.8,84.4,78.8z"/>
</g>
</svg>
